# xmcd CD database file
#
# Track frame offsets:
#	150
#	14987
#	28037
#	40862
#	54437
#	67562
#	81287
#	94940
#	109112
#	123737
#	136562
#	150890
#	163435
#	177805
#	191827
#	206672
#	220327
#	234725
#	248900
#	262102
#	276800
#	292085
#	307315
#	320775
#	333800
#
# Disc length: 4625 seconds
#
# Revision: 3
# Processed by: cddbd v1.5.1PL0 Copyright (c) Steve Scherf et al.
# Submitted via: CDex 1.51
#
DISCID=7d120f19
DTITLE=Billie Holiday - Lady Day: The very best of Billie Holiday
DYEAR=1997
DGENRE=Blues
TTITLE0=These foolish things
TTITLE1=Summertime
TTITLE2=A fine romance
TTITLE3=The way you look tonight
TTITLE4=I've got my love to keep me warm
TTITLE5=They can't take that away from me
TTITLE6=I'll never be the same
TTITLE7=Nice work if you can get it
TTITLE8=Can't help lovin' dat man
TTITLE9=When you're smiling
TTITLE10=Any old time
TTITLE11=The very thought of you
TTITLE12=Strange fruit
TTITLE13=Good morning heartache
TTITLE14=Georgia on my mind
TTITLE15=All of me
TTITLE16=Easy living
TTITLE17=God bless the child
TTITLE18=I loves you, Porgy
TTITLE19=Lover man (Oh, where can you be?)
TTITLE20=Don't explain
TTITLE21=You're my thrill
TTITLE22=There is no greater love
TTITLE23=That ole devil called love
TTITLE24=For all we know
EXTD=YEAR: 1997
EXTT0=
EXTT1=
EXTT2=
EXTT3=
EXTT4=
EXTT5=
EXTT6=
EXTT7=
EXTT8=
EXTT9=
EXTT10=
EXTT11=
EXTT12=
EXTT13=
EXTT14=
EXTT15=
EXTT16=
EXTT17=
EXTT18=
EXTT19=
EXTT20=
EXTT21=
EXTT22=
EXTT23=
EXTT24=
PLAYORDER=
